<svg xmlns="http://www.w3.org/2000/svg" xmlns:xlink="http://www.w3.org/1999/xlink" width="560.472" height="39.125" viewBox="0 0 560.472 39.125">
  <defs>
    <clipPath id="clip-path">
      <rect id="矩形_21077" data-name="矩形 21077" width="560.472" height="39.125" fill="none"/>
    </clipPath>
  </defs>
  <g id="传播名" transform="translate(0)">
    <path id="路径_13367" data-name="路径 13367" d="M23.755,3.864v14.5H7.292V3.864H0V39.8H7.292V25.206H23.755V39.8h7.291V3.864Z" transform="translate(0 -1.329)"/>
    <g id="组_55923" data-name="组 55923" transform="translate(0 0)">
      <g id="组_55922" data-name="组 55922" transform="translate(0 0)" clip-path="url(#clip-path)">
        <path id="路径_13368" data-name="路径 13368" d="M86.389,24.432c0,5.843-2.9,8.963-8.168,8.963-5.3,0-8.216-3.208-8.216-9.211V3.885H62.714V24.432c0,10.108,5.616,15.9,15.409,15.9,9.886,0,15.556-5.905,15.556-16.2V3.864h-7.29Z" transform="translate(-21.561 -1.328)"/>
        <path id="路径_13369" data-name="路径 13369" d="M207.317,28.572l-8.16-24.715h-5.95l-8.158,24.715L177.112,3.878h-7.76L181.874,39.8h6.039l8.171-23.6,8.169,23.6h6.089l12.492-35.92h-7.561Z" transform="translate(-58.223 -1.326)"/>
        <path id="路径_13370" data-name="路径 13370" d="M267.006,24.348h13.262V17.8H267.006V10.447h19.25V3.9H259.813V39.789h27.136V33.244H267.006Z" transform="translate(-89.324 -1.341)"/>
        <rect id="矩形_21076" data-name="矩形 21076" width="7.193" height="35.888" transform="translate(206.32 2.534)"/>
        <path id="路径_13371" data-name="路径 13371" d="M142.7,32.3l3.227,7.48h7.641L137.792,3.864h-6.425L115.536,39.778h7.442l3.273-7.48Zm-8.241-19.341,5.53,12.862H128.962Z" transform="translate(-39.722 -1.328)"/>
        <path id="路径_13372" data-name="路径 13372" d="M363.939,4.015h19.746l-.5,4H368.449V19.476h13.795v3.853H368.449V40.008h-4.511Z" transform="translate(-125.123 -1.38)"/>
        <path id="路径_13373" data-name="路径 13373" d="M402.228,24.658q0-2.236-.192-6.712h4.079q.144,1.119.264,2.7t.168,2.5a24,24,0,0,1,2.064-2.982,8.261,8.261,0,0,1,2.375-1.976,6.324,6.324,0,0,1,3.119-.758,8.052,8.052,0,0,1,2.352.323l-.625,4.052a7.278,7.278,0,0,0-1.919-.249,6.008,6.008,0,0,0-3.767,1.255,17.125,17.125,0,0,0-3.5,4.064V44.618h-4.415Z" transform="translate(-138.221 -5.99)"/>
        <path id="路径_13374" data-name="路径 13374" d="M447.711,31.444h-17.2q.048,5,2.2,7.5a7.728,7.728,0,0,0,6.2,2.5,16.539,16.539,0,0,0,7.269-1.715L447.207,43a18.6,18.6,0,0,1-4.114,1.566,20.826,20.826,0,0,1-5.051.547A12.551,12.551,0,0,1,431.48,43.5a10.155,10.155,0,0,1-4.079-4.661,17.637,17.637,0,0,1-1.379-7.32,18.282,18.282,0,0,1,1.439-7.581,10.961,10.961,0,0,1,4.019-4.847,10.7,10.7,0,0,1,5.938-1.665,9.424,9.424,0,0,1,5.77,1.715,10.092,10.092,0,0,1,3.419,4.511,16.412,16.412,0,0,1,1.1,6.078Zm-4.439-3.231a9.353,9.353,0,0,0-1.811-5.53,5.243,5.243,0,0,0-4.211-1.852,5.614,5.614,0,0,0-4.33,1.876,10.033,10.033,0,0,0-2.219,5.506Z" transform="translate(-146.467 -5.99)"/>
        <path id="路径_13375" data-name="路径 13375" d="M487.2,31.444H470q.048,5,2.2,7.5a7.728,7.728,0,0,0,6.2,2.5,16.539,16.539,0,0,0,7.269-1.715L486.694,43a18.6,18.6,0,0,1-4.114,1.566,20.827,20.827,0,0,1-5.051.547,12.551,12.551,0,0,1-6.561-1.616,10.155,10.155,0,0,1-4.079-4.661,17.638,17.638,0,0,1-1.379-7.32,18.281,18.281,0,0,1,1.439-7.581,10.96,10.96,0,0,1,4.019-4.847,10.7,10.7,0,0,1,5.938-1.665,9.424,9.424,0,0,1,5.77,1.715,10.091,10.091,0,0,1,3.419,4.511,16.412,16.412,0,0,1,1.1,6.078Zm-4.439-3.231a9.353,9.353,0,0,0-1.811-5.53,5.243,5.243,0,0,0-4.211-1.852,5.614,5.614,0,0,0-4.33,1.876,10.033,10.033,0,0,0-2.219,5.506Z" transform="translate(-160.043 -5.99)"/>
        <path id="路径_13376" data-name="路径 13376" d="M527.468,22.148a8.544,8.544,0,0,1,2.867,3.169,9.555,9.555,0,0,1,1.043,4.549,9.935,9.935,0,0,1-1.4,5.282,9.34,9.34,0,0,1-4.1,3.579,15.035,15.035,0,0,1-6.49,1.28H509.018V4.015h9.621q5.3,0,8.025,2.175a7.288,7.288,0,0,1,2.723,6.028,8.322,8.322,0,0,1-1.667,5.257,9.078,9.078,0,0,1-4.45,3.07,10.724,10.724,0,0,1,4.2,1.6m-14.011-3.095h4.366a7.694,7.694,0,0,0,3.719-.87,6.2,6.2,0,0,0,2.471-2.349,6.311,6.311,0,0,0,.864-3.244,4.165,4.165,0,0,0-1.74-3.654,8.764,8.764,0,0,0-5.05-1.219h-4.63ZM524.9,34.589a6.112,6.112,0,0,0,1.991-4.9,6.27,6.27,0,0,0-2.231-5.2,10.026,10.026,0,0,0-6.406-1.789h-4.8V36.3h5.4q4.054,0,6.046-1.715" transform="translate(-175.002 -1.38)"/>
        <path id="路径_13377" data-name="路径 13377" d="M554.154,42.866q-1.955-2.523-1.955-7.594V18.22h4.342v16.8q0,3.48,1.211,5.046a4.229,4.229,0,0,0,3.563,1.566,7.672,7.672,0,0,0,4.09-1.206,15.009,15.009,0,0,0,3.563-3.095V18.22h4.415V38.205q0,2.785.216,6.687h-3.958q-.168-.77-.312-1.976t-.216-2.076a20.007,20.007,0,0,1-4.127,3.306,9.514,9.514,0,0,1-4.918,1.243,7.016,7.016,0,0,1-5.914-2.523" transform="translate(-189.847 -6.264)"/>
        <path id="路径_13378" data-name="路径 13378" d="M612.112,38.627q-.287-1.54-.455-3.331a11.241,11.241,0,0,1-3.5,2.8,9.806,9.806,0,0,1-4.534,1.032,8.865,8.865,0,0,1-8.469-5.556,17.54,17.54,0,0,1-1.344-7.37,19.915,19.915,0,0,1,1.415-7.83,11.355,11.355,0,0,1,4.091-5.133,11.134,11.134,0,0,1,6.37-1.8,16.269,16.269,0,0,1,3.035.3,23.051,23.051,0,0,1,2.8.7V.5l4.415-.5V31.891q0,3.282.192,6.736Zm-3.574-4.313a9.436,9.436,0,0,0,2.975-2.473V15.933a23.21,23.21,0,0,0-2.77-.709,14.21,14.21,0,0,0-2.676-.285A6.7,6.7,0,0,0,602,16.194a7.949,7.949,0,0,0-2.651,3.741,17.381,17.381,0,0,0-.936,6.09q0,4.9,1.716,7.122a5.343,5.343,0,0,0,4.427,2.225,8.066,8.066,0,0,0,3.982-1.056" transform="translate(-204.152 0)"/>
        <path id="路径_13379" data-name="路径 13379" d="M639.564,44.655a14.556,14.556,0,0,1-3.456-1.205l1.1-3.405a14.24,14.24,0,0,0,3.143,1.106,15.147,15.147,0,0,0,3.527.435,6.587,6.587,0,0,0,4.15-1.119,3.686,3.686,0,0,0,1.415-3.057,3.283,3.283,0,0,0-.635-2.051,5.487,5.487,0,0,0-1.836-1.467q-1.2-.634-3.551-1.579a22.1,22.1,0,0,1-3.755-1.926,7.286,7.286,0,0,1-2.3-2.4,6.638,6.638,0,0,1-.827-3.406,7.1,7.1,0,0,1,1-3.8,6.429,6.429,0,0,1,2.915-2.486,11.158,11.158,0,0,1,4.63-.87,17.417,17.417,0,0,1,7.629,1.815l-.864,3.281a17.387,17.387,0,0,0-3.324-1.243,12.882,12.882,0,0,0-3.251-.448,5.41,5.41,0,0,0-3.347.908,2.873,2.873,0,0,0-1.188,2.4,2.679,2.679,0,0,0,.612,1.777,5.485,5.485,0,0,0,1.7,1.305q1.092.572,3.347,1.516a34.468,34.468,0,0,1,3.887,1.939,7.205,7.205,0,0,1,2.387,2.374,7.04,7.04,0,0,1,.948,3.816,8.1,8.1,0,0,1-1.14,4.337,7.548,7.548,0,0,1-3.359,2.884,12.651,12.651,0,0,1-5.362,1.032,18.82,18.82,0,0,1-4.2-.46" transform="translate(-218.695 -5.99)"/>
        <path id="路径_13380" data-name="路径 13380" d="M690.243,3.9h8.733q6.333,0,9.669,2.7t3.335,7.818a12.059,12.059,0,0,1-1.571,6.227,10.615,10.615,0,0,1-4.4,4.126,13.975,13.975,0,0,1-6.478,1.455,20.493,20.493,0,0,1-4.775-.572V39.89h-4.511ZM705.2,20.365a7.484,7.484,0,0,0,2.243-5.779q0-3.655-2.2-5.294a10.516,10.516,0,0,0-6.37-1.641h-4.126V22.018a21.69,21.69,0,0,0,3.935.423q4.27,0,6.514-2.076" transform="translate(-237.307 -1.339)"/>
        <path id="路径_13381" data-name="路径 13381" d="M731.531,24.54q0-2.236-.192-6.712h4.079q.144,1.119.264,2.7t.168,2.5a23.988,23.988,0,0,1,2.064-2.982,8.259,8.259,0,0,1,2.375-1.976,6.324,6.324,0,0,1,3.119-.758,8.052,8.052,0,0,1,2.352.323l-.625,4.052a7.277,7.277,0,0,0-1.919-.249,6.008,6.008,0,0,0-3.767,1.255,17.123,17.123,0,0,0-3.5,4.064V44.5h-4.415Z" transform="translate(-251.436 -5.95)"/>
        <path id="路径_13382" data-name="路径 13382" d="M761.095,43.394a11,11,0,0,1-4.234-4.661,16.109,16.109,0,0,1-1.535-7.308,17.056,17.056,0,0,1,1.535-7.47A11.927,11.927,0,0,1,773.678,19a11.3,11.3,0,0,1,4.223,4.835,16.784,16.784,0,0,1,1.512,7.345,16.312,16.312,0,0,1-1.572,7.42,11.283,11.283,0,0,1-4.33,4.76A12.02,12.02,0,0,1,767.249,45a11.823,11.823,0,0,1-6.154-1.6m11.912-4.661a12.6,12.6,0,0,0,1.8-7.233,13.658,13.658,0,0,0-1.907-7.681,6.307,6.307,0,0,0-5.6-2.858,6.211,6.211,0,0,0-5.554,2.771,13.268,13.268,0,0,0-1.835,7.42,15.11,15.11,0,0,0,.888,5.469,7.431,7.431,0,0,0,2.615,3.5,7.061,7.061,0,0,0,4.175,1.219,6.147,6.147,0,0,0,5.422-2.61" transform="translate(-259.682 -5.95)"/>
        <path id="路径_13383" data-name="路径 13383" d="M824.277,39.281a16.025,16.025,0,0,1-5.038-2.461l1.391-3.927a16.117,16.117,0,0,0,4.4,2.522,13.744,13.744,0,0,0,4.954.932A9.131,9.131,0,0,0,834.1,35.5a5.94,5.94,0,0,0,2.567-2.361,6.837,6.837,0,0,0,.876-3.48,5.964,5.964,0,0,0-2.232-4.921q-2.231-1.79-6.478-1.789h-3.646v-3.7h2.495a10.47,10.47,0,0,0,4.427-.869,6.763,6.763,0,0,0,2.9-2.424,6.355,6.355,0,0,0,1.02-3.566,5.268,5.268,0,0,0-1.583-4.027,6.013,6.013,0,0,0-4.295-1.492,10.116,10.116,0,0,0-4.57,1.081,13.175,13.175,0,0,0-3.563,2.5l-1.511-3.381a15.1,15.1,0,0,1,4.379-2.809,14.223,14.223,0,0,1,5.721-1.119,12.128,12.128,0,0,1,5.3,1.094,8.2,8.2,0,0,1,3.515,3.082,8.49,8.49,0,0,1,1.236,4.574,8.3,8.3,0,0,1-1.98,5.605,10.029,10.029,0,0,1-5.242,3.144,11.2,11.2,0,0,1,6.274,2.933,8.384,8.384,0,0,1,2.411,6.313,9.471,9.471,0,0,1-5.71,8.974,14.978,14.978,0,0,1-6.358,1.268,20.284,20.284,0,0,1-5.782-.845" transform="translate(-281.656 -1.079)"/>
      </g>
    </g>
  </g>
</svg>
