<svg xmlns="http://www.w3.org/2000/svg" xmlns:xlink="http://www.w3.org/1999/xlink" width="575.848" height="45.589" viewBox="0 0 575.848 45.589">
  <defs>
    <clipPath id="clip-path">
      <rect id="矩形_23360" data-name="矩形 23360" width="575.848" height="45.589" fill="none"/>
    </clipPath>
  </defs>
  <g id="组_54501" data-name="组 54501" transform="translate(0 0)">
    <rect id="矩形_23358" data-name="矩形 23358" width="6.209" height="30.1" transform="translate(568.906 14.428)" fill="#231815"/>
    <g id="组_54500" data-name="组 54500" transform="translate(0 0)">
      <g id="组_54499" data-name="组 54499" clip-path="url(#clip-path)">
        <path id="路径_24565" data-name="路径 24565" d="M714.427,10.457a3.663,3.663,0,0,1-3.808-3.79,3.589,3.589,0,0,1,1.072-2.691,3.742,3.742,0,0,1,2.735-1.041A3.79,3.79,0,0,1,717.17,4a3.547,3.547,0,0,1,1.1,2.671,3.792,3.792,0,0,1-.505,1.945,3.644,3.644,0,0,1-1.385,1.363,4.013,4.013,0,0,1-1.951.482" transform="translate(-142.42 -0.588)" fill="#231815"/>
        <path id="路径_24566" data-name="路径 24566" d="M645.32,1.742,634.633,8.816l3.027,5.467L645.32,9.3v36.28h6.956V1.742Z" transform="translate(-127.191 -0.349)" fill="#231815"/>
        <path id="路径_24567" data-name="路径 24567" d="M684.126,1.742,673.439,8.816l3.027,5.467,7.66-4.985v36.28h6.956V1.742Z" transform="translate(-134.969 -0.349)" fill="#231815"/>
        <path id="路径_24568" data-name="路径 24568" d="M29.688,18.126H9.113V.007H0V44.919H9.113V26.68H29.688V44.919H38.8V.007H29.688Z" transform="translate(0 -0.001)" fill="#231815"/>
        <path id="路径_24569" data-name="路径 24569" d="M93.911,25.713c0,7.3-3.625,11.2-10.207,11.2-6.622,0-10.268-4.009-10.268-11.511V.034H64.323V25.713c0,12.633,7.02,19.878,19.258,19.878,12.355,0,19.441-7.38,19.441-20.249V.008H93.911Z" transform="translate(-12.891 -0.001)" fill="#231815"/>
        <path id="路径_24570" data-name="路径 24570" d="M221.142,30.888,210.944,0h-7.436l-10.2,30.888L183.393.026h-9.7l15.65,44.891h7.546L207.1,15.428l10.21,29.489h7.609L240.534.026h-9.449Z" transform="translate(-34.811 0)" fill="#231815"/>
        <path id="路径_24571" data-name="路径 24571" d="M275.465,25.6H292.04V17.418H275.465V8.226h24.058V.046H266.476V44.9h33.913v-8.18H275.465Z" transform="translate(-53.406 -0.009)" fill="#231815"/>
        <rect id="矩形_23359" data-name="矩形 23359" width="8.989" height="44.852" transform="translate(257.85 0.003)" fill="#231815"/>
        <path id="路径_24572" data-name="路径 24572" d="M152.443,35.544l4.032,9.348h9.55L146.313.008h-8.029L118.5,44.892h9.3l4.091-9.348Zm-10.3-24.171,6.911,16.075H135.278Z" transform="translate(-23.749 -0.001)" fill="#231815"/>
        <path id="路径_24573" data-name="路径 24573" d="M574.068,8.78c-7.711,0-12.782,7.376-12.782,14.615s5.071,14.615,12.782,14.615S586.85,30.634,586.85,23.4,581.778,8.78,574.068,8.78m0-7.307A19.023,19.023,0,0,1,586.85,6.482V2.13h7.308V44.459H586.85V40.308a19.023,19.023,0,0,1-12.782,5.009c-11.1,0-20.09-9.815-20.09-21.921s8.994-21.922,20.09-21.922" transform="translate(-111.027 -0.295)" fill="#231815"/>
        <path id="路径_24574" data-name="路径 24574" d="M414.852,44.442h-7.283V30.5c0-2.256.014-4.512-.074-6.767a31.616,31.616,0,0,0-.619-5.6,12.115,12.115,0,0,0-3.824-6.82,11.441,11.441,0,0,0-14.628,0,12.106,12.106,0,0,0-3.823,6.82,31.528,31.528,0,0,0-.619,5.6c-.088,2.254-.074,4.51-.074,6.767V44.442h-7.284V30.5c0-6,0-11.471,1.284-15.948a17.663,17.663,0,0,1,6.613-9.695,19.846,19.846,0,0,1,22.435,0,17.662,17.662,0,0,1,6.612,9.695c1.284,4.478,1.284,9.952,1.284,15.948Z" transform="translate(-75.482 -0.277)" fill="#231815"/>
        <path id="路径_24575" data-name="路径 24575" d="M528.251,2.294h7.763l-15.55,42.329h-8.906L496.006,2.294h7.765l12.24,33.318Z" transform="translate(-99.408 -0.46)" fill="#231815"/>
        <path id="路径_24576" data-name="路径 24576" d="M457.909,8.654c-7.71,0-12.781,7.376-12.781,14.614s5.071,14.615,12.781,14.615,12.782-7.375,12.782-14.615S465.619,8.654,457.909,8.654m0-7.307C469,1.347,478,11.162,478,23.268s-9,21.922-20.09,21.922-20.09-9.815-20.09-21.922,8.995-21.921,20.09-21.921" transform="translate(-87.746 -0.27)" fill="#231815"/>
      </g>
    </g>
  </g>
</svg>
